# xmcd
#
# Track frame offsets:
#	150
#	21738
#	40883
#	65094
#	83473
#	101499
#	121868
#	137657
#	154190
#	164936
#	186136
#	208104
#	221352
#	232245
#	248653
#	264863
#
# Disc length: 3683 seconds
#
# Revision: 0
# Processed by: cddbd v1.5.1PL2 Copyright (c) Steve Scherf et al.
# Submitted via: audiograbber 1.83.01
#
DISCID=e60e6110
DTITLE=Various Artist - Walking in Memphis [CD2)
DYEAR=2002
DGENRE=
TTITLE0=Jackson Browne - Running on empty
TTITLE1=Daniel Lanois - The Maker
TTITLE2=Stevie Ray Vaughan - Texas Flood
TTITLE3=John Hiatt - Have a little faith in me
TTITLE4=Muddy Waters - I'm your hoochie coochie man
TTITLE5=John Lee Hooker - I'm in the mood
TTITLE6=BB King - Ain't nobody home
TTITLE7=Robert Cray - Right next door (because of me)
TTITLE8=J.J.Cale - After midnight
TTITLE9=Chris Whitley - Big sky country
TTITLE10=Keb 'Mo' - More than one way home
TTITLE11=Taj Mahal - Everybody's got to change something
TTITLE12=Lowell George - Cheek to cheek
TTITLE13=Mink Deville - Demasiado corazon
TTITLE14=G. Love and Special Sauce - The things that I used to do
TTITLE15=Leslie West's Mountain - Missisipi queen
EXTD=
EXTT0=
EXTT1=
EXTT2=
EXTT3=
EXTT4=
EXTT5=
EXTT6=
EXTT7=
EXTT8=
EXTT9=
EXTT10=
EXTT11=
EXTT12=
EXTT13=
EXTT14=
EXTT15=
PLAYORDER=
